<svg width="27" height="27" viewBox="0 0 27 27" fill="none" xmlns="http://www.w3.org/2000/svg">
  <path d="M27 13.5C27 6.044 20.956 0 13.5 0S0 6.044 0 13.5c0 6.74 4.938 12.327 11.39 13.342V17.402H7.96V13.5h3.43v-2.974c0-3.385 2.016-5.254 5.1-5.254 1.478 0 3.023.264 3.023.264v3.324h-1.703c-1.678 0-2.2 1.041-2.2 2.11V13.5h3.745l-.599 3.902h-3.146v9.44C22.062 25.827 27 20.24 27 13.5z" fill="#1877F2"/>
  <path d="M18.756 17.402l.599-3.902h-3.745V11.97c0-1.069.522-2.11 2.2-2.11h1.703V6.536s-1.545-.264-3.022-.264c-3.085 0-5.101 1.87-5.101 5.254V13.5H7.96v3.902h3.43v9.44a13.615 13.615 0 004.22 0v-9.44h3.146z" fill="#fff"/>
</svg>
