<svg width="27" height="27" viewBox="0 0 27 27" fill="none" xmlns="http://www.w3.org/2000/svg">
  <path d="M24.3 13.77c0-.87-.07-1.7-.21-2.5H13.5v4.73h6.06a5.18 5.18 0 01-2.25 3.4v2.83h3.64c2.13-1.96 3.36-4.85 3.36-8.46z" fill="#4285F4"/>
  <path d="M13.5 25c3.04 0 5.6-1.01 7.46-2.73l-3.64-2.83c-1.01.68-2.3 1.08-3.82 1.08-2.94 0-5.43-1.99-6.32-4.66H3.4v2.92A11.49 11.49 0 0013.5 25z" fill="#34A853"/>
  <path d="M7.18 15.86a6.9 6.9 0 010-4.38V8.56H3.4a11.49 11.49 0 000 10.22l3.78-2.92z" fill="#FBBC05"/>
  <path d="M13.5 6.82c1.66 0 3.15.57 4.32 1.69l3.24-3.24A10.24 10.24 0 0013.5 2 11.49 11.49 0 003.4 8.56l3.78 2.92c.9-2.67 3.38-4.66 6.32-4.66z" fill="#EA4335"/>
</svg>
