<svg width="27" height="27" viewBox="0 0 27 27" fill="none" xmlns="http://www.w3.org/2000/svg">
  <path d="M22.162 21.006c-.414.953-.612 1.378-1.145 2.218-.744 1.172-1.793 2.632-3.092 2.645-1.153.012-1.45-.75-3.014-.74-1.564.008-1.89.754-3.044.742-1.299-.013-2.29-1.333-3.035-2.505-2.084-3.282-2.302-7.135-1.017-9.182.913-1.454 2.355-2.306 3.71-2.306 1.38 0 2.247.752 3.388.752 1.108 0 1.783-.754 3.38-.754 1.206 0 2.488.657 3.398 1.79-2.987 1.637-2.502 5.901.471 7.34zM17.244 8.514c.578-.741.996-1.787.84-2.858-.926.064-2.01.653-2.644 1.422-.576.7-1.052 1.758-.867 2.78 1.012.031 2.058-.57 2.671-1.344z" fill="#000"/>
</svg>
